<svg width="51" height="49" viewBox="0 0 51 49" fill="none" xmlns="http://www.w3.org/2000/svg">
<rect width="50.4408" height="48.9122" rx="8.07781" fill="#083602"/>
<g clip-path="url(#clip0_6_669)">
<path d="M16.1407 15.6519L34.2993 15.6519C34.5669 15.6519 34.8235 15.755 35.0127 15.9385C35.2019 16.1219 35.3082 16.3707 35.3082 16.6302V32.2821C35.3082 32.5415 35.2019 32.7904 35.0127 32.9738C34.8235 33.1573 34.5669 33.2603 34.2993 33.2603H16.1407C15.8731 33.2603 15.6165 33.1573 15.4273 32.9738C15.2381 32.7904 15.1318 32.5415 15.1318 32.2821L15.1318 16.6302C15.1318 16.3707 15.2381 16.1219 15.4273 15.9385C15.6165 15.755 15.8731 15.6519 16.1407 15.6519V15.6519ZM33.2905 19.7977L25.2926 26.7433L17.1495 19.7762V31.3038H33.2905V19.7977ZM17.665 17.6084L25.2815 24.1255L32.7881 17.6084H17.665Z" fill="white"/>
</g>
<defs>
<clipPath id="clip0_6_669">
<rect width="24.2116" height="23.4779" fill="white" transform="translate(13.1145 12.7172)"/>
</clipPath>
</defs>
</svg>
