<svg width="252" height="82" viewBox="0 0 252 82" fill="none" xmlns="http://www.w3.org/2000/svg">
<circle cx="57.6016" cy="41.0785" r="38.4114" stroke="#083602" stroke-width="2.72015"/>
<path d="M3.67847 47.7062C4.91046 55.1158 10.9643 71.9276 20.9382 80.6695" stroke="#083602" stroke-width="1.83157" stroke-linecap="round" stroke-linejoin="round"/>
<path d="M1.50903 63.4393C3.48966 70.2065 6.92628 76.0835 7.9166 77.2271" stroke="#083602" stroke-width="1.83157" stroke-linecap="round" stroke-linejoin="round"/>
<path d="M111.567 34.2701C110.335 26.8605 104.281 10.0487 94.3074 1.30683" stroke="#083602" stroke-width="1.83157" stroke-linecap="round" stroke-linejoin="round"/>
<path d="M113.737 18.537C111.756 11.7698 108.319 5.89279 107.329 4.74921" stroke="#083602" stroke-width="1.83157" stroke-linecap="round" stroke-linejoin="round"/>
<path d="M144.562 38.5C145.521 39 146.479 39.5417 147.438 40.125C148.438 40.7083 149.354 41.2708 150.188 41.8125C151.021 42.3125 151.708 42.7917 152.25 43.25C152.833 43.6667 153.208 44 153.375 44.25C153.583 44.5833 153.688 45.1042 153.688 45.8125C153.688 46.4792 153.625 47.2292 153.5 48.0625C153.417 48.8542 153.271 49.6458 153.062 50.4375C152.854 51.1875 152.625 51.7917 152.375 52.25C152.083 52.8333 151.417 53.5833 150.375 54.5C149.375 55.4167 148.25 56.3333 147 57.25C145.75 58.1667 144.521 58.9792 143.312 59.6875C142.146 60.3958 141.25 60.8333 140.625 61C140.167 61.125 139.479 61.25 138.562 61.375C137.688 61.5 136.771 61.6042 135.812 61.6875C134.854 61.7708 133.979 61.8333 133.188 61.875C132.438 61.875 131.979 61.8333 131.812 61.75C131.479 61.5417 131.188 61.2292 130.938 60.8125C130.729 60.3958 130.625 59.8542 130.625 59.1875C130.708 57.7292 130.875 56.7292 131.125 56.1875C131.208 56.0625 131.312 56 131.438 56C131.562 55.9583 131.771 55.9375 132.062 55.9375C132.354 55.9375 132.729 55.9375 133.188 55.9375C133.646 55.9375 134.25 55.9167 135 55.875C134.792 53.75 134.604 51.7292 134.438 49.8125C134.271 47.8958 134.125 46.2083 134 44.75C133.833 43.0417 133.708 41.4375 133.625 39.9375C133.542 38.4792 133.417 36.8542 133.25 35.0625C133.125 33.5208 132.979 31.7292 132.812 29.6875C132.646 27.6458 132.458 25.4375 132.25 23.0625C131.875 23.0625 131.438 23.0625 130.938 23.0625C130.438 23.0625 129.938 23.0625 129.438 23.0625C128.979 23.0208 128.583 22.9792 128.25 22.9375C127.875 22.8542 127.646 22.75 127.562 22.625C127.396 22.375 127.271 21.9167 127.188 21.25C127.104 20.5417 127.062 19.8542 127.062 19.1875C127.062 18.4792 127.188 17.7917 127.438 17.125C127.688 16.4167 127.979 15.9583 128.312 15.75C128.396 15.7083 128.729 15.7083 129.312 15.75C129.896 15.75 130.604 15.8125 131.438 15.9375C132.271 16.0208 133.167 16.1458 134.125 16.3125C135.125 16.4375 136.062 16.5833 136.938 16.75C137.812 16.875 138.583 17 139.25 17.125C139.917 17.25 140.375 17.3333 140.625 17.375C141.042 17.4583 141.833 17.6875 143 18.0625C144.208 18.3958 145.5 18.7917 146.875 19.25C148.25 19.7083 149.562 20.2292 150.812 20.8125C152.062 21.3542 152.938 21.8958 153.438 22.4375C153.646 22.6458 153.833 23.2292 154 24.1875C154.208 25.1458 154.354 26.2083 154.438 27.375C154.562 28.5417 154.604 29.6458 154.562 30.6875C154.562 31.6875 154.458 32.3542 154.25 32.6875C154.083 32.9375 153.5 33.375 152.5 34C151.5 34.625 150.396 35.2708 149.188 35.9375C147.812 36.6875 146.271 37.5417 144.562 38.5ZM139.812 37.25C140.354 37 141.083 36.5 142 35.75C142.958 35 143.896 34.1667 144.812 33.25C145.771 32.2917 146.583 31.3333 147.25 30.375C147.958 29.375 148.312 28.5208 148.312 27.8125C148.312 27.6042 148.083 27.3333 147.625 27C147.208 26.6667 146.625 26.3333 145.875 26C145.125 25.6667 144.229 25.3333 143.188 25C142.188 24.625 141.104 24.2917 139.938 24L139.812 37.25ZM139.75 55.1875C140.917 54.9375 142.021 54.5417 143.062 54C144.104 53.4583 145.021 52.875 145.812 52.25C146.604 51.5833 147.229 50.9167 147.688 50.25C148.146 49.5833 148.375 48.9792 148.375 48.4375C148.375 47.8958 148.021 47.2917 147.312 46.625C146.646 45.9583 145.833 45.2917 144.875 44.625C143.958 43.9583 143.021 43.3542 142.062 42.8125C141.104 42.2708 140.354 41.875 139.812 41.625L139.75 55.1875ZM158.5 22.75C158.708 22.375 159.146 21.8958 159.812 21.3125C160.479 20.6875 161.271 20.0625 162.188 19.4375C163.146 18.8125 164.167 18.25 165.25 17.75C166.333 17.2083 167.417 16.8542 168.5 16.6875C169.625 16.4792 170.667 16.5208 171.625 16.8125C172.625 17.0625 173.479 17.6458 174.188 18.5625C174.562 19.0208 174.917 19.9375 175.25 21.3125C175.583 22.6875 175.896 24.3542 176.188 26.3125C176.521 28.2292 176.812 30.375 177.062 32.75C177.312 35.0833 177.521 37.4792 177.688 39.9375C177.854 42.3542 177.958 44.75 178 47.125C178.083 49.4583 178.083 51.625 178 53.625C177.958 55.5833 177.833 57.2708 177.625 58.6875C177.458 60.0625 177.188 61.0208 176.812 61.5625C176.062 62.6458 174.896 63.375 173.312 63.75C171.729 64.125 170.062 64.125 168.312 63.75C166.562 63.4167 164.896 62.7083 163.312 61.625C161.729 60.5417 160.562 59.0833 159.812 57.25C159.312 56.0417 158.896 54.3958 158.562 52.3125C158.271 50.2292 158.042 47.9792 157.875 45.5625C157.708 43.1042 157.604 40.6042 157.562 38.0625C157.562 35.5208 157.583 33.1875 157.625 31.0625C157.708 28.8958 157.812 27.0625 157.938 25.5625C158.104 24.0625 158.292 23.125 158.5 22.75ZM170.75 54.4375C171 54.1875 171.167 53.5208 171.25 52.4375C171.375 51.3125 171.438 50 171.438 48.5C171.479 46.9583 171.479 45.3333 171.438 43.625C171.438 41.9167 171.438 40.3333 171.438 38.875C171.438 35.1667 171.312 32.2917 171.062 30.25C170.812 28.2083 170.521 26.6875 170.188 25.6875C169.812 24.5208 169.396 23.7917 168.938 23.5C168.312 23.625 167.792 23.8333 167.375 24.125C166.958 24.375 166.625 24.6667 166.375 25C166.083 25.375 165.854 25.7708 165.688 26.1875C165.562 26.5625 165.417 27.2917 165.25 28.375C165.125 29.4583 165 30.75 164.875 32.25C164.75 33.7083 164.625 35.3125 164.5 37.0625C164.417 38.7708 164.333 40.4583 164.25 42.125C164.208 43.7917 164.167 45.375 164.125 46.875C164.125 48.3333 164.146 49.5417 164.188 50.5C164.271 51.9583 164.604 53.0208 165.188 53.6875C165.812 54.3542 166.479 54.7917 167.188 55C167.896 55.1667 168.583 55.1667 169.25 55C169.958 54.8333 170.458 54.6458 170.75 54.4375ZM183.188 22.75C183.396 22.375 183.833 21.8958 184.5 21.3125C185.167 20.6875 185.958 20.0625 186.875 19.4375C187.833 18.8125 188.854 18.25 189.938 17.75C191.021 17.2083 192.104 16.8542 193.188 16.6875C194.312 16.4792 195.354 16.5208 196.312 16.8125C197.312 17.0625 198.167 17.6458 198.875 18.5625C199.25 19.0208 199.604 19.9375 199.938 21.3125C200.271 22.6875 200.583 24.3542 200.875 26.3125C201.208 28.2292 201.5 30.375 201.75 32.75C202 35.0833 202.208 37.4792 202.375 39.9375C202.542 42.3542 202.646 44.75 202.688 47.125C202.771 49.4583 202.771 51.625 202.688 53.625C202.646 55.5833 202.521 57.2708 202.312 58.6875C202.146 60.0625 201.875 61.0208 201.5 61.5625C200.75 62.6458 199.583 63.375 198 63.75C196.417 64.125 194.75 64.125 193 63.75C191.25 63.4167 189.583 62.7083 188 61.625C186.417 60.5417 185.25 59.0833 184.5 57.25C184 56.0417 183.583 54.3958 183.25 52.3125C182.958 50.2292 182.729 47.9792 182.562 45.5625C182.396 43.1042 182.292 40.6042 182.25 38.0625C182.25 35.5208 182.271 33.1875 182.312 31.0625C182.396 28.8958 182.5 27.0625 182.625 25.5625C182.792 24.0625 182.979 23.125 183.188 22.75ZM195.438 54.4375C195.688 54.1875 195.854 53.5208 195.938 52.4375C196.062 51.3125 196.125 50 196.125 48.5C196.167 46.9583 196.167 45.3333 196.125 43.625C196.125 41.9167 196.125 40.3333 196.125 38.875C196.125 35.1667 196 32.2917 195.75 30.25C195.5 28.2083 195.208 26.6875 194.875 25.6875C194.5 24.5208 194.083 23.7917 193.625 23.5C193 23.625 192.479 23.8333 192.062 24.125C191.646 24.375 191.312 24.6667 191.062 25C190.771 25.375 190.542 25.7708 190.375 26.1875C190.25 26.5625 190.104 27.2917 189.938 28.375C189.812 29.4583 189.688 30.75 189.562 32.25C189.438 33.7083 189.312 35.3125 189.188 37.0625C189.104 38.7708 189.021 40.4583 188.938 42.125C188.896 43.7917 188.854 45.375 188.812 46.875C188.812 48.3333 188.833 49.5417 188.875 50.5C188.958 51.9583 189.292 53.0208 189.875 53.6875C190.5 54.3542 191.167 54.7917 191.875 55C192.583 55.1667 193.271 55.1667 193.938 55C194.646 54.8333 195.146 54.6458 195.438 54.4375ZM228.5 25.1875C228.542 25.8125 228.458 26.75 228.25 28C228.083 29.25 227.792 30.5 227.375 31.75C226.958 33 226.417 34.1042 225.75 35.0625C225.125 35.9792 224.396 36.4375 223.562 36.4375C223.146 36.4375 222.792 36.1875 222.5 35.6875C222.208 35.1875 221.958 34.5417 221.75 33.75C221.542 32.9583 221.375 32.0833 221.25 31.125C221.125 30.125 221 29.1667 220.875 28.25C220.792 27.3333 220.708 26.5 220.625 25.75C220.583 24.9583 220.542 24.375 220.5 24C220.333 23.75 220.021 23.5 219.562 23.25C219.146 22.9583 218.771 22.8125 218.438 22.8125C218.062 22.8125 217.604 23.1667 217.062 23.875C216.562 24.5833 216.083 25.4167 215.625 26.375C215.167 27.3333 214.792 28.2917 214.5 29.25C214.208 30.1667 214.083 30.875 214.125 31.375C214.125 31.7083 214.438 32.2917 215.062 33.125C215.729 33.9583 216.542 34.9375 217.5 36.0625C218.458 37.1875 219.5 38.4167 220.625 39.75C221.75 41.0417 222.792 42.3333 223.75 43.625C224.708 44.9167 225.521 46.1458 226.188 47.3125C226.854 48.4792 227.208 49.4792 227.25 50.3125C227.333 51.3125 227.104 52.6042 226.562 54.1875C226.062 55.7292 225.417 57.2292 224.625 58.6875C223.833 60.1458 222.979 61.4167 222.062 62.5C221.188 63.5417 220.396 64.0833 219.688 64.125C219.229 64.1667 218.625 63.9583 217.875 63.5C217.125 63.0833 216.312 62.5208 215.438 61.8125C214.562 61.1042 213.667 60.3333 212.75 59.5C211.875 58.625 211.042 57.7708 210.25 56.9375C209.5 56.1042 208.854 55.3542 208.312 54.6875C207.812 53.9792 207.521 53.4583 207.438 53.125C207.271 52.625 207.167 51.9583 207.125 51.125C207.125 50.25 207.167 49.4167 207.25 48.625C207.375 47.7917 207.521 47.0833 207.688 46.5C207.896 45.875 208.146 45.5625 208.438 45.5625C208.646 45.5625 208.979 45.8333 209.438 46.375C209.938 46.9167 210.5 47.6042 211.125 48.4375C211.75 49.2708 212.417 50.1875 213.125 51.1875C213.875 52.1458 214.583 53.0417 215.25 53.875C215.917 54.7083 216.521 55.4167 217.062 56C217.604 56.5417 218.042 56.7917 218.375 56.75C218.625 56.75 218.896 56.5625 219.188 56.1875C219.479 55.7708 219.75 55.2917 220 54.75C220.25 54.1667 220.458 53.5833 220.625 53C220.792 52.4167 220.875 51.9583 220.875 51.625C220.833 51.125 220.417 50.4167 219.625 49.5C218.875 48.5417 217.917 47.4792 216.75 46.3125C215.625 45.1042 214.396 43.8542 213.062 42.5625C211.771 41.2708 210.542 40.0417 209.375 38.875C208.25 37.6667 207.292 36.5833 206.5 35.625C205.75 34.6667 205.354 33.9375 205.312 33.4375C205.271 32.9375 205.417 32.1667 205.75 31.125C206.083 30.0417 206.521 28.8333 207.062 27.5C207.646 26.1667 208.292 24.8125 209 23.4375C209.708 22.0625 210.438 20.7917 211.188 19.625C211.938 18.4583 212.667 17.5208 213.375 16.8125C214.083 16.0625 214.708 15.6875 215.25 15.6875C215.958 15.6875 216.771 15.8542 217.688 16.1875C218.604 16.4792 219.542 16.8958 220.5 17.4375C221.5 17.9375 222.458 18.5208 223.375 19.1875C224.333 19.8542 225.188 20.5417 225.938 21.25C226.688 21.9167 227.292 22.6042 227.75 23.3125C228.208 23.9792 228.458 24.6042 228.5 25.1875ZM251.188 16.875C251.312 17.0833 251.375 17.5625 251.375 18.3125C251.417 19.0625 251.396 19.875 251.312 20.75C251.229 21.625 251.104 22.4792 250.938 23.3125C250.812 24.1042 250.667 24.625 250.5 24.875C250.375 25.0833 249.604 25.1667 248.188 25.125C246.812 25.0417 244.833 24.8333 242.25 24.5C242.25 26.125 242.229 28.2083 242.188 30.75C242.146 33.2917 242.062 36.0208 241.938 38.9375C241.854 41.8125 241.75 44.7083 241.625 47.625C241.542 50.5417 241.438 53.1875 241.312 55.5625C241.188 57.9375 241.062 59.875 240.938 61.375C240.812 62.875 240.708 63.6667 240.625 63.75C240.458 63.875 240.167 63.8125 239.75 63.5625C239.375 63.3542 238.979 63.0417 238.562 62.625C238.146 62.2083 237.75 61.7917 237.375 61.375C237.042 60.9167 236.812 60.5208 236.688 60.1875C236.646 60.0208 236.562 59.2083 236.438 57.75C236.354 56.2917 236.25 54.4583 236.125 52.25C236 50.0417 235.854 47.5833 235.688 44.875C235.521 42.1667 235.354 39.4792 235.188 36.8125C235.021 34.1458 234.833 31.6458 234.625 29.3125C234.458 26.9792 234.312 25.0417 234.188 23.5C231.354 23.2083 229.312 22.9167 228.062 22.625C226.812 22.3333 226.104 22.1042 225.938 21.9375C225.771 21.7708 225.604 21.4583 225.438 21C225.229 20.5 225.062 20 224.938 19.5C224.812 19 224.75 18.5417 224.75 18.125C224.708 17.6667 224.75 17.375 224.875 17.25C224.958 17.1667 225.667 17.0833 227 17C228.292 16.9167 229.896 16.8333 231.812 16.75C233.729 16.6667 235.792 16.6042 238 16.5625C240.25 16.5208 242.333 16.5 244.25 16.5C246.167 16.5 247.771 16.5417 249.062 16.625C250.396 16.6667 251.104 16.75 251.188 16.875Z" fill="#083602"/>
</svg>
