<svg width="818" height="698" viewBox="0 0 818 698" fill="none" xmlns="http://www.w3.org/2000/svg">
<g filter="url(#filter0_d_301_21)">
<rect x="84" y="46.767" width="536.59" height="493.745" rx="246.872" transform="rotate(-5 84 46.767)" fill="white"/>
<path d="M374.09 158.342C376.041 158.171 377.496 156.577 377.339 154.781C377.182 152.985 375.472 151.668 373.521 151.839C371.569 152.01 370.115 153.604 370.272 155.399C370.429 157.195 372.138 158.512 374.09 158.342Z" fill="#E3F0FF"/>
<path d="M360.682 154.013C360.749 154.767 360.495 155.52 359.975 156.114C359.454 156.707 358.708 157.096 357.891 157.197C357.529 155.274 357.393 153.317 357.488 151.361C358.292 151.343 359.069 151.606 359.662 152.099C360.255 152.591 360.62 153.275 360.682 154.013Z" fill="#E3F0FF"/>
<path d="M451.055 90.7876C451.055 90.7876 446.753 66.7108 418.575 70.1203" stroke="#FF1E00" stroke-width="0.742928" stroke-linecap="round" stroke-linejoin="round"/>
<path d="M444.615 61.3387C445.223 61.3593 452.465 84.2592 423.536 92.6448" stroke="#FF1E00" stroke-width="0.742928" stroke-linecap="round" stroke-linejoin="round"/>
<path d="M456.345 75.7819C446.762 77.5236 437.351 72.8782 440.044 60.0959" stroke="#FF1E00" stroke-width="0.742928" stroke-linecap="round" stroke-linejoin="round"/>
<path d="M416.697 81.8955C420.39 80.6451 424.186 79.6785 428.045 79.0059C445.858 76.1583 445.036 86.8637 442.307 95.9624" stroke="#FF1E00" stroke-width="0.742928" stroke-linecap="round" stroke-linejoin="round"/>
<path d="M456.432 76.571C456.646 78.9877 456.34 81.4265 455.531 83.7477C454.722 86.069 453.427 88.2271 451.719 90.0986C450.011 91.9702 447.925 93.5184 445.578 94.6547C443.232 95.7909 440.672 96.493 438.045 96.7207C435.801 96.9189 433.542 96.7638 431.366 96.2622C427.061 94.1632 423.762 90.6733 422.092 86.4515C420.423 82.2298 420.497 77.5684 422.303 73.3477C424.108 69.1271 427.519 65.6393 431.892 63.543C436.264 61.4467 441.295 60.887 446.035 61.9696L446.342 62.1152C449.19 63.5647 451.599 65.6402 453.358 68.1603C455.117 70.6803 456.172 73.5681 456.432 76.571Z" fill="#FF1E00"/>
<path d="M452.693 76.0611C452.465 74.7275 452.079 73.4231 451.541 72.1713" stroke="white" stroke-width="0.742928" stroke-linecap="round" stroke-linejoin="round"/>
<path d="M437.588 93.6328C442.354 93.339 450.135 89.2506 452.305 82.229" stroke="white" stroke-width="0.742928" stroke-linecap="round" stroke-linejoin="round"/>
<path d="M427.164 465.512C427.208 465.967 427.353 466.407 427.589 466.805C427.895 467.238 430.203 467.816 432.645 468.087C432.758 468.086 432.871 468.076 432.982 468.058C435.944 467.437 438.034 464.61 440.28 461.926C442.526 459.241 442.968 453.578 442.745 451.035C442.523 448.493 440.79 446.633 440.254 444.996C439.718 443.36 441.931 441.721 443.378 439.911C444.826 438.101 444.095 433.107 443.75 429.163C443.617 427.027 442.742 424.996 441.253 423.371C441.439 425.498 441.578 429.632 440.807 430.201C439.876 430.89 438.116 431.881 437.145 430.981C436.174 430.081 437.197 428.513 435.136 428.422C433.076 428.332 426.753 428.17 426.631 431.367C426.532 434.118 426.834 454.801 426.996 461.446C427.018 461.698 427.122 463.709 427.184 464.821C427.159 465.051 427.152 465.282 427.164 465.512V465.512Z" fill="#FF1E00"/>
<path d="M219.57 115.655L243.906 113.526L242.523 88.1261L218.356 90.5607L219.57 115.655Z" fill="#E3F0FF"/>
<path d="M262.886 100.862C256.395 99.4396 249.745 98.6751 243.054 98.5814C236.045 98.5377 230.141 99.5962 229.892 102.878C229.9 102.967 229.908 103.057 229.917 103.155C229.925 103.253 229.999 103.279 230.049 103.34C230.617 104.027 231.289 104.634 232.045 105.145C234.632 106.971 238.81 108.724 243.72 110.273C252.829 113.055 262.22 115.022 271.763 116.146C272.782 116.262 273.746 116.367 274.655 116.452C283.653 117.307 287.92 116.711 289.878 115.53C290.355 115.251 290.748 114.866 291.02 114.412C291.293 113.957 291.436 113.447 291.436 112.931L291.43 112.865C287.872 108.102 271.187 102.82 262.886 100.862ZM285.792 112.579C285.77 112.614 285.743 112.647 285.711 112.676C285.683 112.713 285.65 112.746 285.613 112.775C284.703 113.495 281.364 113.779 276.872 113.54C275.58 113.464 274.178 113.348 272.745 113.186C270.942 112.983 269.007 112.692 267.049 112.346C263.677 111.738 259.307 110.856 254.852 109.817C251.591 109.059 248.296 108.214 245.322 107.366C244.717 107.189 244.122 107.011 243.552 106.823C241.327 106.163 239.166 105.339 237.09 104.358C236.709 104.162 236.362 103.97 236.049 103.784C235.737 103.59 235.453 103.401 235.214 103.217C234.916 103.038 234.667 102.797 234.488 102.514C234.308 102.231 234.202 101.912 234.178 101.583C234.189 101.412 234.248 101.245 234.35 101.1C234.417 101 234.499 100.91 234.595 100.832C235.746 99.9105 239.123 99.7546 243.172 100.033C244.474 100.124 245.868 100.248 247.248 100.415L248.492 100.561L248.907 100.615C249.349 100.666 249.809 100.725 250.244 100.793L250.686 100.853L251.979 101.044L252.431 101.111L253.173 101.227C256.792 101.789 259.952 102.416 261.628 102.811C263.67 103.297 267.553 104.329 271.616 105.591L272.635 105.913L273.149 106.073C274.168 106.402 275.186 106.716 276.183 107.088L277.168 107.437L278.091 107.792C278.719 108.033 279.337 108.266 279.938 108.501C280.669 108.798 281.355 109.091 281.979 109.39C282.36 109.561 282.715 109.744 283.051 109.912C283.387 110.079 283.688 110.258 283.989 110.429C284.289 110.6 284.356 110.651 284.518 110.769C285.382 111.358 285.886 111.922 285.858 112.417C285.847 112.474 285.824 112.529 285.792 112.579V112.579Z" fill="#255E17"/>
<path d="M385.37 150.498C384.418 150.89 383.526 151.399 382.719 152.011C382.296 152.18 381.143 152.059 381.102 150.264C381.061 148.469 381.765 146.314 384.328 146.944C386.89 147.574 385.37 150.498 385.37 150.498Z" fill="#E3F0FF"/>
<path d="M386.3 152.256C386.3 152.256 390.711 151.673 388.696 149.041C388.696 149.041 390.883 147.208 390.111 144.812C389.339 142.416 388.461 142.583 388.461 142.583C388.461 142.583 382.216 144.64 383.708 140.273C384.482 138.005 387.281 138.072 387.281 138.072C387.281 138.072 386.849 133.133 382.722 132.977C382.722 132.977 380.27 137.486 377.011 135.119C373.752 132.752 376.713 131.713 376.713 131.713C376.713 131.713 373.601 131.846 373.242 133.766C373.275 133.623 372.222 128.329 369.156 128.975C366.089 129.621 364.545 134.921 364.781 136.912C364.781 136.912 362.165 133.429 360.752 134.308C359.339 135.187 358.942 137.899 360.464 139.589C360.464 139.589 366.326 134.477 374.059 139.327C378.729 142.307 382.207 146.611 383.976 151.597C384.817 151.545 385.644 151.779 386.3 152.256V152.256Z" fill="#E3F0FF"/>
<path d="M359.128 142.268C358.199 145.218 357.649 148.254 357.492 151.312C357.398 153.268 357.533 155.225 357.896 157.148C358.77 161.637 360.968 164.926 364.215 166.136C366.854 167.129 370.166 166.741 374.015 164.524L374.735 164.091" stroke="#255E17" stroke-width="0.742928" stroke-linecap="round" stroke-linejoin="round"/>
<path d="M379.771 152.696C378.104 150.781 377.277 147.24 379.759 146.128" stroke="#255E17" stroke-width="0.742928" stroke-linecap="round" stroke-linejoin="round"/>
<path d="M384 151.67C381.127 143.915 367.223 133.299 359.155 142.274C359.155 142.274 358.942 138.811 361.469 137.3C363.996 135.79 375.624 132.326 384.903 146.59C385.131 147.444 385.169 148.334 385.014 149.207C384.859 150.08 384.514 150.918 384 151.67Z" fill="#FF1E00" stroke="#FF1E00" stroke-width="0.742928" stroke-linecap="round" stroke-linejoin="round"/>
<path d="M424.455 378.554C427.399 387.213 429.597 400.496 429.283 401.812C431.037 400.937 432.713 399.934 434.295 398.812C430.333 385.758 425.716 370.823 423.852 365.846C422.564 362.447 420.885 359.189 418.844 356.127C418.4 359.22 421.521 369.901 424.455 378.554Z" fill="#E3F0FF"/>
<path d="M289.86 295.251C293.712 295.522 296.715 298.125 298.716 303.041C298.716 303.041 297.508 297.193 298.8 295.643C298.842 295.592 298.889 295.544 298.94 295.5C299.917 294.584 300.949 293.721 302.033 292.914C306.537 289.416 305.345 284.569 306.313 280.633C306.975 277.997 317.411 264.685 325.296 255.159C321.089 255.527 311.717 266.817 307.854 272.032C303.991 277.248 303.313 282.143 300.53 285.532C297.748 288.92 292.566 292.215 288.914 291.171C288.87 291.175 286.018 294.988 289.86 295.251Z" fill="#E3F0FF"/>
<path d="M316.995 236.975C320.166 238.135 324.738 239.287 328.784 238.317C335.165 236.79 331.508 232.117 321.414 230.676C320.611 232.88 319.258 234.886 317.465 236.532C317.295 236.637 317.149 236.806 316.995 236.975Z" fill="#E3F0FF"/>
<path d="M361.69 248.247C370.416 242.828 376.247 247.466 368.877 251.347C361.506 255.227 369.329 257.235 375.882 255.529C382.434 253.823 394.195 257.581 386.194 261.196C378.193 264.811 351.672 259.61 353.01 254.41C354.349 249.21 358.769 250.055 361.69 248.247Z" fill="#E3F0FF"/>
<path d="M375.018 180.883C378.368 178.373 384.614 182.556 379.698 187.864C374.781 193.172 359.67 196.809 357.273 189.604C354.875 182.399 360.72 181.683 364.629 184.543C368.007 187.039 375.018 180.883 375.018 180.883Z" fill="#E3F0FF"/>
<path d="M349.52 234.91C350.099 238.57 350.459 241.569 350.677 243.956C352.019 243.69 353.577 243.751 354.16 245.613C355.242 249.107 360.192 244.897 360.252 240.893C360.312 236.889 370.186 230.811 372.123 225.616C375.838 215.659 359.09 228.833 359.946 225.458C360.802 222.082 355.153 224.834 352.131 227.931C350.936 229.169 350.092 231.969 349.52 234.91Z" fill="#E3F0FF"/>
<path d="M403.36 233.212C407.772 236.111 411.03 240.917 407.916 240.918C404.802 240.92 412.029 248.252 407.269 249.736C402.508 251.22 400.981 256.716 395.389 256.753C389.797 256.791 381.184 252.174 384.776 249.988C388.368 247.801 397.426 248.003 395.702 247.168C393.978 246.333 386.057 240.154 389.011 238.417C391.964 236.681 392.214 238.006 392.553 238.107C392.892 238.209 389.562 224.221 403.36 233.212Z" fill="#E3F0FF"/>
<path d="M451.049 380.498C450.9 380.781 450.874 381.104 450.977 381.4C451.079 381.697 451.302 381.945 451.599 382.092C453.536 383.023 455.531 384.096 455.718 384.195C458.467 386.648 463.659 391.834 467.928 395.944C471.259 399.143 474.025 401.684 474.684 401.774C475.787 401.932 477.903 400.926 479.411 399.604C479.04 391.786 476.015 384.858 472.123 382.694C466.861 379.771 465.303 375.432 466.572 371.988C467.841 368.543 459.169 358.766 457.895 358.073C457.022 357.583 452.804 361.089 450.375 363.214C454.094 366.247 458.1 374.798 456.821 375.69C455.543 376.582 453.606 376.267 452.908 377.675C452.378 378.656 451.762 379.597 451.066 380.488L451.049 380.498Z" fill="#FF1E00"/>
<path d="M416.738 275.858C417.165 280.747 417.009 285.688 416.841 292.033C416.513 304.1 416.002 322.119 414.956 324.14C414.909 324.218 414.863 324.304 414.8 324.392L414.736 324.479L414.583 324.665C414.257 325.035 413.895 325.377 413.503 325.688C413.228 325.909 412.917 326.133 412.589 326.359C412.413 326.489 412.219 326.613 412.024 326.737C411.636 326.992 411.221 327.242 410.769 327.487C410.548 327.613 410.318 327.74 410.079 327.859C409.839 327.979 409.823 327.997 409.686 328.066C410.59 321.763 411.809 311.532 412.822 298.116C414.07 281.782 412.125 271.08 410.993 266.195C412.382 265.753 413.917 265.348 414.933 265.029C415.812 268.591 416.415 272.21 416.738 275.858Z" fill="#E3F0FF"/>
<path d="M407.854 322.322C401.904 323.663 394.073 322.797 389.004 321.056L388.856 321.003L387.014 320.343C385.881 319.941 384.749 319.548 383.582 319.165C376.409 316.837 370.481 321.19 370.481 321.19C365.48 320.102 360.259 320.087 355.217 321.146C355.189 316.641 355.638 306.272 354.759 300.913C353.826 294.069 354.085 287.117 355.527 280.317C356.065 277.7 356.551 272.337 356.891 267.963C358.623 268.907 360.55 269.514 362.556 269.748C364.561 269.982 366.603 269.838 368.558 269.324C372.2 271.887 389.735 276.167 394.409 272.991C394.78 272.736 395.177 272.488 395.593 272.238C397.966 270.826 400.425 269.542 402.958 268.392L403.02 268.386C403.767 268.05 407.317 266.508 407.317 266.508C413.154 284.472 407.854 322.322 407.854 322.322Z" fill="#255E17"/>
<path d="M410.914 327.408C410.274 335.084 410.021 343.416 411.937 346.656C412.521 347.578 413.156 348.47 413.84 349.33C414.012 349.562 414.193 349.792 414.384 350.038C415.387 351.297 416.488 352.769 417.669 354.431C418.046 354.973 418.426 355.539 418.817 356.129C420.867 359.189 422.555 362.447 423.852 365.846C425.892 371.317 431.207 388.719 435.422 402.515C438.5 412.715 441.089 421.193 441.089 421.193" stroke="#255E17" stroke-width="0.742928" stroke-linecap="round" stroke-linejoin="round"/>
<path d="M445.737 102.527C445.909 103.579 445.49 111.942 443.425 117.509C442.312 120.497 439.914 127.054 438.295 133.026C448.098 131.248 448.334 110.691 450.217 103.752C452.329 95.9641 444.931 97.9005 450.161 95.6693C453.293 94.336 453.936 90.2645 453.938 87.1276C451.907 90.5099 448.792 93.2405 445.026 94.94C441.26 96.6395 437.029 97.2235 432.922 96.6109C435.221 99.9324 435.741 100.265 438.988 100.662C442.235 101.06 445.574 101.482 445.737 102.527Z" fill="#E3F0FF"/>
<path d="M407.379 201.018C406.87 198.733 406.812 196.377 407.207 194.061C407.493 192.944 408.072 188.648 408.072 188.648C411.429 187.025 415.775 183.048 417.494 181.485C418.281 180.772 419.117 180.106 419.997 179.493L419.837 179.507C416.596 179.79 410.662 182.543 411.21 179.021C411.759 175.5 411.868 167.468 407.627 168.66C403.385 169.852 401.878 182.211 401.683 183.96C401.526 185.428 402.902 193.502 400.923 197.912C402.928 199.185 405.095 200.228 407.379 201.018V201.018Z" fill="#E3F0FF"/>
<path d="M445.113 151.192C445.311 153.579 446.427 155.81 448.261 157.486C452.273 153.212 455.489 148.359 457.776 143.129C458.14 142.222 458.437 141.293 458.666 140.35C457.537 140.111 456.371 140.041 455.212 140.143C452.303 140.398 449.605 141.704 447.712 143.776C445.818 145.847 444.884 148.515 445.113 151.192V151.192Z" fill="#E3F0FF"/>
<path d="M331.779 197.369C333.753 197.604 335.767 197.341 337.606 196.608C339.446 195.874 341.043 194.697 342.226 193.203C343.409 191.708 344.135 189.952 344.326 188.12C344.517 186.289 344.166 184.451 343.31 182.803C341.243 183.603 339.363 184.772 337.78 186.241C336.198 187.71 334.943 189.451 334.091 191.361C333.315 193.104 332.539 195.151 331.779 197.369Z" fill="#E3F0FF"/>
<path d="M331.752 242.549C331.86 243.827 332.236 245.071 332.857 246.213L332.854 246.172C337.414 241.175 338.625 236.347 338.732 234.712C338.912 233.742 339.205 232.791 339.608 231.876C337.182 232.574 335.078 234.015 333.648 235.958C332.218 237.9 331.548 240.227 331.752 242.549V242.549Z" fill="#E3F0FF"/>
<path d="M367.534 354.728C369.75 359.65 371.861 363.382 373.121 364.733C374.708 366.45 378.027 367.359 382.088 367.981C382.867 366.408 383.195 364.682 383.042 362.97C382.808 360.291 381.426 357.822 379.201 356.107C376.975 354.392 374.089 353.572 371.177 353.827C369.918 353.931 368.686 354.236 367.534 354.728V354.728Z" fill="#E3F0FF"/>
<path d="M382.932 343.963C383.433 346.246 384.154 348.48 385.086 350.639C386.21 353.284 388.927 358.022 392.414 363.81C392.697 363.785 392.989 363.759 393.299 363.732C395.38 363.554 397.389 362.912 399.154 361.862C400.919 360.812 402.385 359.386 403.428 357.707C404.47 356.027 405.057 354.145 405.137 352.223C405.218 350.301 404.789 348.396 403.889 346.674C402.988 344.952 401.643 343.463 399.969 342.337C398.295 341.212 396.343 340.482 394.282 340.212C392.22 339.941 390.111 340.139 388.136 340.786C386.161 341.434 384.38 342.513 382.946 343.929L382.932 343.963Z" fill="#E3F0FF"/>
<path d="M480.22 104.683C490.643 125.392 497.297 152.186 495.561 167.832" stroke="#255E17" stroke-width="0.742928" stroke-linecap="round" stroke-linejoin="round"/>
<path d="M505.017 144.439C504.263 132.361 499.868 120.763 492.324 110.948" stroke="#255E17" stroke-width="0.742928" stroke-linecap="round" stroke-linejoin="round"/>
<path d="M409.317 187.982C413.058 186.267 417.886 180.761 419.828 179.499C421.271 178.552 436.914 169.982 448.242 157.471C452.254 153.197 455.47 148.344 457.757 143.114C458.121 142.207 458.418 141.278 458.647 140.335C461.946 127.04 458.796 98.0833 458.47 93.9487C458.082 89.5076 458.849 82.5676 459.117 78.2907C459.386 74.0138 457.59 71.0342 454.166 69.4288" stroke="#255E17" stroke-width="0.742928" stroke-linecap="round" stroke-linejoin="round"/>
<path d="M360.01 175.906C360.355 181.279 362.779 186.338 368.16 183.79C373.541 181.242 378.81 171.494 381.061 170.295C382.887 169.332 384.781 168.483 386.728 167.755C387.264 167.552 387.801 167.365 388.33 167.188C389.846 166.669 391.334 166.235 392.747 165.865C396.018 164.993 399.357 164.371 402.731 164.006C402.731 164.006 404.447 163.224 406.345 162.368C406.894 162.115 407.47 161.867 408.064 161.618C409.052 161.187 409.99 160.785 410.689 160.51C413.155 159.531 424.532 152.18 430.731 146.834C432.52 145.211 434.535 143.814 436.721 142.681C436.72 143.306 436.872 143.921 437.164 144.481C439.397 148.071 442.971 144.655 441.817 142.785C441.109 141.632 439.394 141.412 436.721 142.681C436.586 140.418 437.307 136.832 438.347 133.013C439.966 127.042 442.364 120.484 443.477 117.497C445.543 111.938 445.963 103.575 445.789 102.514C445.616 101.454 442.275 101.007 439.04 100.641C435.804 100.276 435.273 99.9117 432.974 96.5902" stroke="#255E17" stroke-width="0.742928" stroke-linecap="round" stroke-linejoin="round"/>
<path d="M383.081 159.008C381.09 163.485 382.796 169.42 382.796 169.42" stroke="#255E17" stroke-width="0.742928" stroke-linecap="round" stroke-linejoin="round"/>
<path d="M380.82 158.262C382.935 159.383 386.674 159.179 387.758 156.473C389.076 153.171 384.812 149.726 381.096 152.95" stroke="#255E17" stroke-width="0.742928" stroke-linecap="round" stroke-linejoin="round"/>
<path d="M385.623 155.115C385.17 154.81 384.628 154.637 384.064 154.616C383.5 154.595 382.94 154.728 382.453 154.998" stroke="#255E17" stroke-width="0.742928" stroke-linecap="round" stroke-linejoin="round"/>
<path d="M389.089 152.603C391.249 152.414 392.196 150.689 390.788 148.973C393.811 147.017 393.244 140.843 389.23 139.634C386.939 138.947 384.404 140.475 386.08 141.675C387.298 142.545 388.585 140.823 389.027 137.311C389.416 134.214 386.374 128.511 380.038 131.167C375.398 133.109 379.316 135.459 380.238 133.449C381.331 131.046 377.178 129.077 373.929 130.897C373.929 130.897 373.792 126.582 369.38 126.943C364.509 127.369 363.521 134.025 363.521 134.025C361.774 131.09 356.626 133.454 358.188 139.476" stroke="#255E17" stroke-width="0.742928" stroke-linecap="round" stroke-linejoin="round"/>
<path d="M349.369 262.463C349.225 258.727 349.686 254.984 350.736 251.357C350.962 250.787 351.078 248.436 350.678 243.972C350.469 241.584 350.1 238.586 349.521 234.926C348.971 231.394 348.216 227.247 347.206 222.434C343.192 203.283 348.116 189.18 349.558 186.689C350.999 184.198 351.859 179.032 351.859 179.032C358.348 177.307 362.429 175.102 363.314 172.57" stroke="#255E17" stroke-width="0.742928" stroke-linecap="round" stroke-linejoin="round"/>
<path d="M406.346 173.296C405.408 176.708 404.861 180.196 404.713 183.703" stroke="#255E17" stroke-width="0.742928" stroke-linecap="round" stroke-linejoin="round"/>
<path d="M363.685 170.173C373.948 170.597 373.916 164.721 374.005 164.516C370.157 166.733 366.844 167.122 364.205 166.129C364.113 167.484 363.939 168.834 363.685 170.173V170.173Z" fill="#255E17"/>
<path d="M363.867 144.612C364.385 147.268 362.683 150.866 362.683 150.866C363.14 151.46 363.803 151.892 364.565 152.093C365.327 152.294 366.144 152.253 366.885 151.976" stroke="#255E17" stroke-width="0.742928" stroke-linecap="round" stroke-linejoin="round"/>
<path d="M368.632 157.662C368.564 158.316 366.021 157.611 365.069 157.743C364.117 157.876 362.796 157.876 363.227 157.083C363.483 156.671 363.861 156.334 364.316 156.112C364.772 155.891 365.285 155.793 365.794 155.832C366.834 155.988 368.702 156.933 368.632 157.662Z" stroke="#255E17" stroke-width="0.742928" stroke-linecap="round" stroke-linejoin="round"/>
<path d="M367.973 147.176C367.944 148.065 368.381 148.782 368.939 148.734C369.497 148.685 369.966 147.921 369.992 146.999C370.018 146.077 369.584 145.393 369.026 145.442C368.468 145.49 367.993 146.279 367.973 147.176Z" fill="#255E17"/>
<path d="M359.935 147.509C359.911 148.25 360.272 148.81 360.732 148.77C361.193 148.729 361.566 148.097 361.609 147.363C361.652 146.628 361.272 146.062 360.811 146.102C360.351 146.142 359.949 146.752 359.935 147.509Z" fill="#255E17"/>
<path d="M372.833 143.983C372.277 143.329 371.473 142.894 370.579 142.761C369.685 142.628 368.764 142.808 367.996 143.265" stroke="#255E17" stroke-width="0.742928" stroke-linecap="round" stroke-linejoin="round"/>
<path d="M361.907 143.937C361.467 143.694 360.944 143.608 360.436 143.697C359.927 143.785 359.469 144.041 359.147 144.417" stroke="#255E17" stroke-width="0.742928" stroke-linecap="round" stroke-linejoin="round"/>
<path d="M350.99 262.321C350.99 262.321 353.853 260.979 356.476 263.828C359.099 266.678 363.731 267.71 365.431 266.74C367.131 265.77 373.867 269.623 381.723 270.989C389.579 272.354 398.484 267.954 403.48 265.595C404.518 265.11 405.69 264.638 406.927 264.193C409.563 263.215 412.355 262.38 414.236 261.854C415.622 261.47 416.521 261.244 416.521 261.244C416.071 258.941 415.275 256.711 414.157 254.619C412.942 252.262 411.719 250.628 411.334 249.586C410.644 247.725 413.507 245.561 414.843 243.802C416.18 242.043 411.532 239.099 410.479 237.27C409.427 235.441 409.973 222.197 409.66 216.477C409.607 213.729 409.878 210.98 410.468 208.277C411.131 204.935 411.948 202.244 411.948 202.244C411.948 202.244 397.092 199.922 392.403 187.942C389.585 180.828 389.717 172.97 392.774 165.862V165.862" stroke="#255E17" stroke-width="0.742928" stroke-linecap="round" stroke-linejoin="round"/>
<path d="M374.427 185.048C370.341 189.955 364.508 191.114 360.543 189.547" stroke="#255E17" stroke-width="0.742928" stroke-linecap="round" stroke-linejoin="round"/>
<path d="M407.509 201.073C407.085 200.921 406.693 197.359 406.753 196.212C406.814 195.065 407.802 192.589 407.881 190.743" stroke="#255E17" stroke-width="0.742928" stroke-linecap="round" stroke-linejoin="round"/>
<path d="M404.702 237.324C399.758 235.696 394.509 235.367 395.151 236.591C395.794 237.816 407.591 246.178 404.3 246.096C401.009 246.015 393.724 242.407 393.724 242.407" stroke="#255E17" stroke-width="0.742928" stroke-linecap="round" stroke-linejoin="round"/>
<path d="M401.456 249.186C397.771 249.706 392.91 252.685 389.556 252.091" stroke="#255E17" stroke-width="0.742928" stroke-linecap="round" stroke-linejoin="round"/>
<path d="M381.601 258.477C375.642 259.82 370.53 259.939 357.191 256.195" stroke="#255E17" stroke-width="0.742928" stroke-linecap="round" stroke-linejoin="round"/>
<path d="M367.331 247.755C363.621 250.436 359.073 252.107 356.859 252.399" stroke="#255E17" stroke-width="0.742928" stroke-linecap="round" stroke-linejoin="round"/>
<path d="M368.904 223.911C363.862 229.829 356.978 237.747 356.46 238.86C356.128 239.63 355.922 240.44 355.849 241.262" stroke="#255E17" stroke-width="0.742928" stroke-linecap="round" stroke-linejoin="round"/>
<path d="M356.478 228.865C354.901 232.058 353.334 236.177 353.334 236.177" stroke="#255E17" stroke-width="0.742928" stroke-linecap="round" stroke-linejoin="round"/>
<path d="M297.509 287.505C293.7 292.527 288.906 291.173 288.906 291.173C286.552 292.846 284.045 294.324 281.412 295.589C280.414 296.104 279.259 296.292 278.139 296.122C276.047 295.771 275.1 293.925 276.665 293.04C283.181 289.186 282.449 284.997 287.118 281.862C288.832 280.765 290.456 279.552 291.977 278.234V278.234C293.638 276.655 295.102 274.91 296.341 273.033C299.384 268.751 312.478 242.06 317.006 237.008C317.161 236.839 317.308 236.686 317.441 236.568C319.234 234.923 320.587 232.917 321.391 230.713C322.439 228.116 323.27 224.858 324.736 220.304C326.835 213.691 329.264 204.627 331.755 197.404C332.516 195.186 333.294 193.164 334.067 191.397C334.92 189.486 336.174 187.746 337.757 186.277C339.34 184.807 341.219 183.639 343.286 182.839C345.835 181.806 348.594 181.31 351.36 181.385" stroke="#255E17" stroke-width="0.742928" stroke-linecap="round" stroke-linejoin="round"/>
<path d="M329.279 235.507C327.192 235.829 325.061 235.761 323.015 235.308" stroke="#255E17" stroke-width="0.742928" stroke-linecap="round" stroke-linejoin="round"/>
<path d="M344.823 219.579C343.084 223.771 340.858 228.729 339.652 231.872C339.25 232.787 338.956 233.738 338.776 234.708C338.67 236.359 337.458 241.17 332.898 246.168L332.857 246.212C331.465 247.738 328.6 251.101 325.252 255.163C317.408 264.652 306.892 277.971 306.269 280.636C305.346 284.568 306.537 289.415 301.989 292.917C300.905 293.724 299.872 294.588 298.896 295.503C298.845 295.547 298.798 295.595 298.756 295.647C298.49 295.872 298.296 296.161 298.196 296.48C298.096 296.799 298.095 297.136 298.192 297.453" stroke="#255E17" stroke-width="0.742928" stroke-linecap="round" stroke-linejoin="round"/>
<path d="M298.306 306.517C296.341 302.411 294.417 297.759 293.823 297.811C293.23 297.863 291.873 297.752 291.867 298.606C291.862 299.461 289.832 309.516 289.832 309.516" stroke="#255E17" stroke-width="0.742928" stroke-linecap="round" stroke-linejoin="round"/>
<path d="M280.575 298.97C276.946 304.814 273.234 310.739 273.974 311.446C274.714 312.153 277.337 311.225 278.634 309.634C279.932 308.042 285.231 298.44 285.231 298.44" stroke="#255E17" stroke-width="0.742928" stroke-linecap="round" stroke-linejoin="round"/>
<path d="M284.498 298.011C285.643 298.588 286.823 299.104 288.033 299.558C288.033 299.558 283.931 312.135 282.917 314.523C281.904 316.911 279.214 316.152 280.16 310.954" stroke="#255E17" stroke-width="0.742928" stroke-linecap="round" stroke-linejoin="round"/>
<path d="M288.739 312.216C287.361 314.11 284.693 315.033 284.464 310.274" stroke="#255E17" stroke-width="0.742928" stroke-linecap="round" stroke-linejoin="round"/>
<path d="M414.163 261.829C415.481 266.406 416.33 271.093 416.699 275.829C417.083 280.722 416.97 285.658 416.803 292.004C416.475 304.07 415.964 322.089 414.918 324.11C414.871 324.188 414.825 324.275 414.761 324.362L414.698 324.45L414.544 324.636C414.232 325.014 413.884 325.366 413.503 325.688C413.228 325.909 412.917 326.133 412.589 326.359C412.413 326.489 412.219 326.613 412.024 326.737C411.636 326.992 411.176 327.246 410.769 327.487C410.548 327.613 410.318 327.74 410.079 327.859C409.84 327.979 409.823 327.997 409.687 328.066L409.378 328.216C408.642 328.576 407.861 328.924 407.05 329.241C404.772 330.163 402.331 330.68 399.857 330.765C391.662 330.842 386.226 325.217 375.482 326.641" stroke="#255E17" stroke-width="0.742928" stroke-linecap="round" stroke-linejoin="round"/>
<path d="M378.986 328.954C377.73 329.195 376.462 329.372 375.186 329.483C371.212 329.82 367.215 329.444 363.417 328.378C361.693 327.939 359.888 327.818 358.103 328.022C357.355 328.095 356.611 328.204 355.874 328.348C354.654 328.59 353.459 328.937 352.306 329.383C352.306 329.383 351.445 325.057 351.112 322.27C351.087 321.976 351.062 321.699 351.041 321.455C350.808 318.79 351.633 306.795 350.655 301.026C349.765 294.63 350.065 288.126 351.542 281.792C352.295 278.294 352.782 274.756 352.998 271.203C353.202 268.426 353.39 265.478 353.551 262.122" stroke="#255E17" stroke-width="0.742928" stroke-linecap="round" stroke-linejoin="round"/>
<path d="M379.855 278.6C378.13 290.402 369.556 308.683 370.518 324.882" stroke="white" stroke-width="0.742928" stroke-linecap="round" stroke-linejoin="round"/>
<path d="M370.43 321.22C370.403 322.446 370.422 323.684 370.482 324.878" stroke="#255E17" stroke-width="0.742928" stroke-linecap="round" stroke-linejoin="round"/>
<path d="M416.738 275.857C417.165 280.747 417.009 285.687 416.841 292.033C416.514 304.099 416.002 322.118 414.956 324.139C414.909 324.217 414.863 324.303 414.8 324.391L414.736 324.479L414.583 324.665C414.257 325.034 413.895 325.377 413.503 325.687C413.228 325.908 412.917 326.132 412.589 326.358L412.024 326.736C411.635 326.983 411.176 327.245 410.769 327.486C410.548 327.612 410.318 327.739 410.079 327.859L409.686 328.057L409.378 328.216C408.642 328.576 407.861 328.923 407.05 329.24C407.879 323.116 409.033 312.644 409.929 298.705C410.953 282.563 408.893 271.97 407.697 267.172C407.588 266.747 407.492 266.369 407.401 266.04C407.097 264.909 406.892 264.295 406.91 264.203C409.502 263.229 412.338 262.39 414.219 261.864C415.531 266.44 416.374 271.124 416.738 275.857V275.857Z" stroke="#255E17" stroke-width="0.742928" stroke-linecap="round" stroke-linejoin="round"/>
<path d="M407.854 322.322C400.536 323.636 396.771 324.056 389.188 320.917C381.605 317.779 376.088 318.779 376.088 318.779" stroke="#255E17" stroke-width="0.742928" stroke-linecap="round" stroke-linejoin="round"/>
<path d="M366.75 320.672C360.857 319.717 351.11 322.04 351.11 322.04" stroke="#255E17" stroke-width="0.742928" stroke-linecap="round" stroke-linejoin="round"/>
<path d="M375.291 296.202C373.217 292.708 372.148 288.772 372.184 284.765" stroke="white" stroke-width="0.742928" stroke-linecap="round" stroke-linejoin="round"/>
<path d="M374.401 299.293C371.75 300.198 366.534 302.806 366.534 302.806" stroke="white" stroke-width="0.742928" stroke-linecap="round" stroke-linejoin="round"/>
<path d="M373.07 304.271C371.625 304.821 370.217 305.451 368.853 306.159" stroke="white" stroke-width="0.742928" stroke-linecap="round" stroke-linejoin="round"/>
<path d="M396.977 276.528C397.696 278.929 397.579 281.489 396.645 283.848" stroke="white" stroke-width="0.742928" stroke-linecap="round" stroke-linejoin="round"/>
<path d="M403.687 277.442C401.979 283.414 399.88 292.375 396.442 296.634" stroke="white" stroke-width="0.742928" stroke-linecap="round" stroke-linejoin="round"/>
<path d="M403.292 300.263C399.184 306.551 391.074 317.689 391.827 318.337C392.58 318.986 397.902 314.234 399.672 315.294C401.443 316.355 397.66 319.831 397.66 319.831" stroke="white" stroke-width="0.742928" stroke-linecap="round" stroke-linejoin="round"/>
<path d="M395.684 369.46C391.103 368.917 386.211 368.598 382.088 367.981C377.965 367.365 374.708 366.451 373.121 364.734C371.849 363.351 369.785 359.647 367.534 354.729C364.783 348.641 362.403 342.413 360.405 336.073C359.551 333.355 358.778 330.639 358.136 327.994" stroke="#255E17" stroke-width="0.742928" stroke-linecap="round" stroke-linejoin="round"/>
<path d="M426.882 430.36C426.882 430.36 424.405 422.448 416.495 405.477C411.097 393.855 399.992 376.375 392.414 363.81C388.927 358.022 386.139 353.29 385.087 350.64C384.154 348.481 383.433 346.246 382.932 343.964C382.021 339.675 382.391 336.35 382.34 330.878" stroke="#255E17" stroke-width="0.742928" stroke-linecap="round" stroke-linejoin="round"/>
<path d="M401.455 351.177C400.151 353.364 399.011 355.628 398.041 357.955" stroke="#255E17" stroke-width="0.742928" stroke-linecap="round" stroke-linejoin="round"/>
<path d="M416.495 405.478C421.343 405.3 425.96 403.5 429.283 401.813C431.037 400.938 432.713 399.935 434.295 398.813" stroke="#255E17" stroke-width="0.742928" stroke-linecap="round" stroke-linejoin="round"/>
<path d="M427.134 464.858C427.136 465.074 427.155 465.289 427.19 465.502C427.234 465.957 427.379 466.397 427.615 466.795C428.125 467.522 434.312 468.673 437.265 468.053C440.218 467.433 442.318 464.606 444.564 461.921C446.81 459.237 447.251 453.573 447.029 451.031C446.806 448.488 445.073 446.628 444.537 444.992C444.001 443.356 446.214 441.717 447.662 439.907C449.11 438.097 448.378 433.103 448.033 429.159C447.94 427.517 447.402 425.929 446.468 424.54C445.534 423.15 444.235 422.002 442.688 421.202C441.225 420.393 440.89 421.055 441.135 422.323C441.38 423.591 441.761 429.477 440.831 430.167C439.9 430.856 438.14 431.847 437.169 430.947C436.198 430.046 437.221 428.479 435.16 428.388C433.1 428.297 426.777 428.136 426.655 431.333C426.556 434.084 426.858 454.766 427.02 461.412C427.063 461.909 427.046 462.329 427.057 462.656" stroke="#FF1E00" stroke-width="0.742928" stroke-linecap="round" stroke-linejoin="round"/>
<path d="M431.977 357.425C432.223 358.99 432.347 360.571 432.346 362.155V362.155C432.357 366.777 431.461 371.322 430.337 373.777" stroke="#255E17" stroke-width="0.742928" stroke-linecap="round" stroke-linejoin="round"/>
<path d="M445.903 361.569C443.479 360.886 439.772 359.831 436.105 358.715C434.694 358.296 433.3 357.86 431.977 357.434C429.496 356.72 427.088 355.813 424.779 354.721C421.884 353.037 417.992 350.167 414.384 350.039" stroke="#255E17" stroke-width="0.742928" stroke-linecap="round" stroke-linejoin="round"/>
<path d="M445.903 361.569C445.903 361.569 453.847 355.471 456.212 353.942" stroke="#FF1E00" stroke-width="0.742928" stroke-linecap="round" stroke-linejoin="round"/>
<path d="M449.479 362.651C453.406 364.903 458.178 374.774 456.807 375.731C455.436 376.689 454.018 376.493 453.317 377.859" stroke="#FF1E00" stroke-width="0.742928" stroke-linecap="round" stroke-linejoin="round"/>
<path d="M459.165 354.431C463.163 357.596 470.092 368.05 470.085 372.362C470.079 376.673 470.691 377.145 472.775 378.014C474.859 378.882 479.602 381.892 480.317 384.555C481.032 387.219 481.882 395.914 480.819 397.945C480.456 398.587 479.971 399.166 479.389 399.655C477.881 400.977 475.765 401.984 474.662 401.825C474.038 401.732 471.272 399.191 467.905 395.995C463.637 391.885 458.445 386.699 455.696 384.246C455.212 383.812 454.819 383.501 454.5 383.225" stroke="#FF1E00" stroke-width="0.742928" stroke-linecap="round" stroke-linejoin="round"/>
<path d="M530.393 443.162C521.873 443.086 513.91 441.106 505.887 442.637C497.865 444.168 484.845 444.478 477.641 444.952C470.436 445.426 459.286 446.402 458.76 446.604" stroke="#255E17" stroke-width="0.742928" stroke-linecap="round" stroke-linejoin="round"/>
<path d="M490.621 456.643C485.902 456.555 476.278 455.894 471.625 456.975" stroke="#255E17" stroke-width="0.742928" stroke-linecap="round" stroke-linejoin="round"/>
<path d="M403.553 452.782C389.77 453.035 372.25 454.33 362.816 456.346C353.381 458.362 299.362 461.897 299.362 461.897" stroke="#255E17" stroke-width="0.742928" stroke-linecap="round" stroke-linejoin="round"/>
<path d="M288.126 463.406C283.488 463.862 278.881 464.58 274.33 465.557" stroke="#255E17" stroke-width="0.742928" stroke-linecap="round" stroke-linejoin="round"/>
<path d="M382.53 462.487C373.206 464.945 365.81 463.236 359.708 464.484C353.607 465.732 347.789 467.374 344.216 467.95" stroke="#255E17" stroke-width="0.742928" stroke-linecap="round" stroke-linejoin="round"/>
<path d="M455.731 384.234C458.479 386.687 463.672 391.874 467.94 395.984C468.816 394.823 469.913 393.816 471.178 393.016C473.212 391.885 471.575 390.813 470.838 389.12C470.101 387.428 466.88 386.823 465.292 385.5C463.703 384.177 459.582 379.094 459.582 379.094C458.459 380.904 457.17 382.623 455.731 384.234V384.234Z" fill="#FF1E00" stroke="white" stroke-width="0.742928" stroke-linecap="round" stroke-linejoin="round"/>
<path d="M436.975 435.052C438.187 434.125 436.602 447.221 437.91 451.253C438.984 454.55 430.502 454.496 429.417 451.996C428.824 450.628 428.057 434.108 429.196 435.084C431.663 437.176 433.589 437.664 436.975 435.052Z" fill="#FF1E00" stroke="white" stroke-width="0.742928" stroke-linecap="round" stroke-linejoin="round"/>
<path d="M243.016 93.2552C242.991 92.97 242.641 85.397 242.641 85.397L215.559 87.7664" stroke="#255E17" stroke-width="0.742928" stroke-linecap="round" stroke-linejoin="round"/>
<path d="M215.388 91.723L216.364 115.935L228.674 114.858" stroke="#255E17" stroke-width="0.742928" stroke-linecap="round" stroke-linejoin="round"/>
<path d="M289.887 115.529C286.201 125.319 282.804 131.463 277.048 136.565C271.292 141.666 270.359 143.136 269.827 145.826C269.295 148.517 268.84 151.882 267.747 153.168C266.655 154.455 263.879 167.704 262.781 168.827C261.684 169.949 258.389 170.443 257.48 170.251C256.571 170.06 252.686 164.717 250.345 164.372C248.003 164.027 246.316 165.956 243.092 165.622C239.868 165.289 235.178 161.864 234.037 159.846C232.897 157.827 233.076 156.506 232.114 156.524C231.152 156.543 225.767 156.193 225.263 153.905" stroke="#255E17" stroke-width="0.742928" stroke-linecap="round" stroke-linejoin="round"/>
<path d="M230.049 103.341C229.751 108.606 231.362 116.101 233.479 124.39C235.702 133.072 234.871 136.733 233.063 140.849C231.498 144.491 229.687 148.042 227.639 151.481" stroke="#255E17" stroke-width="0.742928" stroke-linecap="round" stroke-linejoin="round"/>
<path d="M234.803 108.927C234.324 109.867 233.717 110.748 232.998 111.549" stroke="#255E17" stroke-width="0.742928" stroke-linecap="round" stroke-linejoin="round"/>
<path d="M237.699 158.352C237.02 153.854 234.647 145.596 234.716 144.654" stroke="#255E17" stroke-width="0.742928" stroke-linecap="round" stroke-linejoin="round"/>
<path d="M237.713 133.412C238.244 137.071 239.135 140.673 240.377 144.174C241.319 146.883 246.709 155.354 246.78 161.777" stroke="#255E17" stroke-width="0.742928" stroke-linecap="round" stroke-linejoin="round"/>
<path d="M239.736 111.354C239.474 117.214 240.287 123.059 242.141 128.641C244.014 134.546 254.189 155.276 256.145 166.313" stroke="#255E17" stroke-width="0.742928" stroke-linecap="round" stroke-linejoin="round"/>
<path d="M265.519 160.138C265.519 160.138 262.39 148.752 258.841 143.782C255.292 138.813 245.946 124.703 246.134 112.772" stroke="#255E17" stroke-width="0.742928" stroke-linecap="round" stroke-linejoin="round"/>
<path d="M266.822 142.903C266.038 137.717 263.286 133.08 261.217 129.829C259.147 126.578 256.014 121.367 255.858 114.984" stroke="#255E17" stroke-width="0.742928" stroke-linecap="round" stroke-linejoin="round"/>
<path d="M273.561 136.591C272.788 133.466 271.774 130.4 270.527 127.414C269.347 124.126 268.133 121.054 267.906 118.463" stroke="#255E17" stroke-width="0.742928" stroke-linecap="round" stroke-linejoin="round"/>
<path d="M281.177 127.762C280.042 124.988 278.604 122.116 278.392 118.875" stroke="#255E17" stroke-width="0.742928" stroke-linecap="round" stroke-linejoin="round"/>
<path d="M287.42 121.599C286.669 120.554 286.058 119.428 285.601 118.244" stroke="#255E17" stroke-width="0.742928" stroke-linecap="round" stroke-linejoin="round"/>
<path d="M291.455 112.839L291.46 112.904C291.323 115.618 288.874 118.123 271.773 116.146C258.25 114.586 239.169 110.171 232.054 105.144C231.298 104.634 230.626 104.027 230.058 103.34C230.052 103.275 229.967 103.217 229.926 103.155C229.448 102.564 229.206 101.838 229.237 101.096C229.725 94.5422 252.8 96.8672 262.195 99.0834C270.778 101.108 288.334 106.65 291.092 111.549C291.334 111.941 291.46 112.386 291.455 112.839V112.839Z" stroke="#255E17" stroke-width="0.742928" stroke-linecap="round" stroke-linejoin="round"/>
<path d="M243.702 101.398C244.275 103.565 244.928 105.93 245.309 107.326" stroke="#255E17" stroke-width="0.742928" stroke-linecap="round" stroke-linejoin="round"/>
<path d="M247.589 102.069C243.058 103.836 241.757 104.361 241.757 104.361" stroke="#255E17" stroke-width="0.742928" stroke-linecap="round" stroke-linejoin="round"/>
<path d="M253.169 101.178L254.843 109.809" stroke="#255E17" stroke-width="0.742928" stroke-linecap="round" stroke-linejoin="round"/>
<path d="M252.015 107.068C252.192 107.052 261.624 102.762 261.624 102.762L263.899 109.493" stroke="#255E17" stroke-width="0.742928" stroke-linecap="round" stroke-linejoin="round"/>
<path d="M268.734 104.676C269.028 104.766 270.532 110.948 270.532 110.948" stroke="#255E17" stroke-width="0.742928" stroke-linecap="round" stroke-linejoin="round"/>
<path d="M270.949 106.733L266.318 110.004" stroke="#255E17" stroke-width="0.742928" stroke-linecap="round" stroke-linejoin="round"/>
<path d="M277.131 109.057C277.706 110.83 278.041 111.802 278.041 111.802" stroke="#255E17" stroke-width="0.742928" stroke-linecap="round" stroke-linejoin="round"/>
<path d="M278.883 109.906C277.739 110.91 276.018 112.456 276.018 112.456" stroke="#255E17" stroke-width="0.742928" stroke-linecap="round" stroke-linejoin="round"/>
<path d="M243.62 110.249C243.62 110.249 238.068 119.004 232.774 121.536" stroke="#255E17" stroke-width="0.742928" stroke-linecap="round" stroke-linejoin="round"/>
<path d="M252.458 115.289C250.76 118.837 244.749 128.461 238.235 131.733" stroke="#255E17" stroke-width="0.742928" stroke-linecap="round" stroke-linejoin="round"/>
<path d="M264.436 115.111C257.926 124.024 250.912 132.62 243.424 140.861C239.805 144.612 236.416 148.547 233.274 152.645" stroke="#255E17" stroke-width="0.742928" stroke-linecap="round" stroke-linejoin="round"/>
<path d="M274.663 116.451C272.464 120.281 266.847 126.553 263.231 130.408C259.615 134.264 241.346 154.337 241.346 154.337" stroke="#255E17" stroke-width="0.742928" stroke-linecap="round" stroke-linejoin="round"/>
<path d="M282.267 119.818C278.712 124.678 276.468 127.288 274.426 129.856C272.384 132.424 250.297 158.629 250.297 158.629" stroke="#255E17" stroke-width="0.742928" stroke-linecap="round" stroke-linejoin="round"/>
<path d="M265.55 152.22C262.67 155.411 257.586 161.67 257.586 161.67" stroke="#255E17" stroke-width="0.742928" stroke-linecap="round" stroke-linejoin="round"/>
<path d="M365.187 220.696C365.187 220.746 365.175 220.796 365.153 220.841C365.131 220.887 365.099 220.928 365.059 220.962C364.986 221.033 364.888 221.076 364.784 221.085L354.652 221.971L354.854 219.071C354.864 218.996 354.898 218.924 354.952 218.866C356.007 217.491 357.19 216.204 358.488 215.017C358.786 214.745 359.224 214.353 359.788 213.861C360.352 213.368 360.806 212.951 361.129 212.668C361.452 212.385 361.797 212.035 362.165 211.657C362.471 211.343 362.74 211 362.968 210.635C363.127 210.372 363.23 210.084 363.269 209.787C363.286 209.654 363.273 209.519 363.231 209.392C363.19 209.264 363.119 209.146 363.025 209.045C362.845 208.86 362.597 208.742 362.327 208.712C362.104 208.678 361.878 208.656 361.652 208.648C361.513 208.648 361.373 208.66 361.236 208.684L360.944 208.71C360.963 208.578 360.952 208.445 360.912 208.318C360.872 208.191 360.803 208.074 360.71 207.975C360.528 207.79 360.281 207.672 360.011 207.642C359.788 207.608 359.563 207.587 359.336 207.578C359.197 207.574 359.057 207.586 358.92 207.614C358.035 207.691 357.235 207.835 356.481 207.992L356.37 205.595C356.368 205.546 356.377 205.496 356.395 205.45C356.414 205.403 356.443 205.36 356.48 205.323C356.549 205.249 356.641 205.195 356.743 205.169C358.689 204.84 360.575 204.598 362.4 204.444C362.807 204.408 363.21 204.389 363.608 204.387C364.043 204.391 364.476 204.427 364.903 204.496C365.074 204.518 365.244 204.55 365.411 204.591C365.603 204.758 365.775 204.944 365.924 205.146C366.193 205.534 366.382 205.965 366.481 206.419C366.618 206.973 366.668 207.544 366.629 208.114C366.549 208.811 366.303 209.486 365.91 210.09C365.464 210.848 364.927 211.559 364.311 212.209C363.649 212.907 363 213.547 362.347 214.138C361.693 214.729 361.033 215.337 360.337 215.956C359.642 216.575 359.155 217.028 358.87 217.341L365.069 216.798C365.117 216.791 365.166 216.795 365.212 216.808C365.257 216.821 365.299 216.843 365.334 216.873C365.373 216.904 365.402 216.944 365.418 216.989C365.435 217.033 365.438 217.081 365.428 217.128L365.366 218.053L365.187 220.696Z" fill="#E3F0FF"/>
<path d="M381.352 216.351C381.125 216.919 380.808 217.453 380.41 217.936C380.038 218.373 379.6 218.76 379.11 219.085C378.221 219.706 377.207 220.155 376.129 220.405C375.679 220.523 375.223 220.621 374.762 220.697C374.39 220.729 374.027 220.761 373.673 220.792C373.053 220.846 371.892 220.907 370.191 220.973L370.621 218.037C370.643 217.93 370.708 217.833 370.803 217.767C370.842 217.733 370.889 217.707 370.94 217.691C370.991 217.675 371.045 217.67 371.098 217.675C372.703 217.921 374.34 217.963 375.963 217.8C376.367 217.773 376.763 217.682 377.136 217.533C377.435 217.414 377.702 217.236 377.92 217.013C378.091 216.834 378.232 216.633 378.341 216.418C378.432 216.231 378.487 216.032 378.504 215.829C378.565 215.002 377.788 214.684 376.175 214.817C376.178 214.795 376.176 214.773 376.17 214.752C376.231 213.925 375.427 213.602 373.779 213.746C373.077 213.807 372.08 213.911 370.79 214.056L371.482 204.216C371.491 204.118 371.541 204.025 371.62 203.958C371.697 203.894 371.793 203.854 371.896 203.843L382.284 202.935L382.084 205.851C382.075 205.946 382.033 206.036 381.963 206.108C381.93 206.145 381.888 206.177 381.841 206.199C381.794 206.222 381.742 206.235 381.689 206.238L374.605 206.858L374.431 209.255L374.864 209.217C375.225 209.184 375.587 209.169 375.949 209.171C376.241 209.145 376.539 209.177 376.843 209.191C377.148 209.206 377.284 209.227 377.492 209.258C378.036 209.342 378.567 209.486 379.073 209.686C379.579 209.876 380.046 210.143 380.454 210.477L380.54 210.543C380.986 210.959 381.318 211.467 381.509 212.027C381.755 212.749 381.846 213.511 381.776 214.269C381.747 214.977 381.604 215.679 381.352 216.351V216.351Z" fill="#E3F0FF"/>
<path d="M366.481 206.419C366.469 206.288 366.459 206.166 366.377 206.05C366.272 205.729 366.116 205.424 365.914 205.146L365.763 204.946L365.645 204.825C365.571 204.738 365.49 204.658 365.401 204.583C365.275 204.469 365.141 204.362 364.999 204.266C364.649 204.033 364.266 203.846 363.861 203.708C363.449 203.568 363.021 203.468 362.586 203.409C362.158 203.344 361.726 203.31 361.292 203.309C360.885 203.305 360.479 203.321 360.074 203.358C358.302 203.513 356.369 203.756 354.426 204.082C354.319 204.107 354.223 204.165 354.154 204.245C354.119 204.281 354.092 204.323 354.075 204.368C354.057 204.413 354.05 204.461 354.053 204.509L354.211 208.157C354.213 208.203 354.227 208.248 354.25 208.289C354.274 208.329 354.307 208.365 354.348 208.392C354.392 208.42 354.442 208.438 354.495 208.444C354.549 208.451 354.603 208.446 354.654 208.43C355.211 208.267 355.814 208.115 356.471 207.984L357.157 207.858L357.729 207.767L358.919 207.606C359.054 207.582 359.19 207.57 359.327 207.57C359.553 207.578 359.778 207.6 360.001 207.634C360.205 207.657 360.397 207.731 360.556 207.848C360.61 207.881 360.658 207.921 360.7 207.967C360.792 208.069 360.861 208.187 360.901 208.315C360.942 208.443 360.953 208.577 360.934 208.71C360.904 209.008 360.805 209.297 360.643 209.557C360.415 209.923 360.146 210.265 359.84 210.58C359.471 210.957 359.126 211.299 358.804 211.59C358.481 211.881 358.035 212.289 357.471 212.782C356.908 213.275 356.462 213.692 356.163 213.94C354.865 215.128 353.682 216.419 352.627 217.796C352.572 217.853 352.541 217.925 352.538 218.001L352.266 221.827C352.257 221.872 352.26 221.919 352.274 221.963C352.289 222.007 352.315 222.047 352.35 222.079C352.386 222.112 352.429 222.136 352.477 222.149C352.525 222.163 352.575 222.165 352.625 222.156L364.775 221.093C364.89 221.085 364.997 221.038 365.076 220.96V220.96C365.117 220.927 365.15 220.886 365.172 220.84C365.194 220.794 365.205 220.745 365.204 220.695L365.392 218.042L365.462 217.117C365.469 217.089 365.467 217.061 365.455 217.035C365.454 217.002 365.444 216.969 365.428 216.939C365.411 216.91 365.388 216.883 365.36 216.863C365.326 216.834 365.286 216.812 365.241 216.798C365.197 216.785 365.15 216.781 365.103 216.787L358.904 217.329C359.19 217.025 359.729 216.551 360.372 215.944L361.398 215.033L362.381 214.126C362.712 213.826 363.033 213.519 363.364 213.219L364.346 212.214C364.964 211.567 365.501 210.859 365.947 210.103C366.145 209.772 366.309 209.425 366.436 209.067C366.547 208.763 366.616 208.448 366.639 208.129C366.665 207.803 366.667 207.477 366.643 207.152C366.608 206.904 366.554 206.659 366.481 206.419Z" stroke="#255E17" stroke-width="0.742928" stroke-linecap="round" stroke-linejoin="round"/>
<path d="M382.308 201.782C382.276 201.753 382.237 201.731 382.194 201.718C382.151 201.704 382.105 201.7 382.06 201.706L369.662 202.79C369.558 202.801 369.461 202.844 369.387 202.913C369.347 202.944 369.315 202.982 369.292 203.025C369.27 203.068 369.258 203.115 369.257 203.162L368.491 213.994C368.487 214.038 368.493 214.082 368.509 214.123C368.525 214.164 368.55 214.202 368.583 214.233C368.618 214.264 368.659 214.288 368.705 214.303C368.752 214.317 368.801 214.322 368.849 214.316L370.872 214.082C372.165 213.968 373.153 213.833 373.853 213.772C375.509 213.627 376.305 213.959 376.252 214.777C376.254 214.799 376.256 214.82 376.258 214.842C376.236 215.023 376.182 215.2 376.098 215.365C375.993 215.583 375.851 215.784 375.677 215.96C375.46 216.184 375.192 216.362 374.893 216.481C374.522 216.634 374.125 216.727 373.721 216.756C372.097 216.917 370.46 216.872 368.855 216.623C368.802 216.617 368.748 216.623 368.697 216.638C368.646 216.654 368.599 216.68 368.56 216.714C368.463 216.781 368.395 216.878 368.369 216.986L367.733 220.728C367.716 220.768 367.709 220.811 367.713 220.853C367.716 220.895 367.73 220.936 367.754 220.973C367.819 221.038 367.908 221.077 368.005 221.082L370.824 220.975L371.293 220.934C372.378 220.888 373.142 220.846 373.602 220.806C374.063 220.766 374.329 220.742 374.692 220.711C374.878 220.694 375.081 220.676 375.306 220.591C375.427 220.572 375.547 220.545 375.665 220.51L376.058 220.419C376.18 220.392 376.299 220.357 376.415 220.313C376.564 220.283 376.709 220.24 376.85 220.185C377.097 220.106 377.339 220.013 377.575 219.908C378.093 219.685 378.584 219.411 379.039 219.09C379.41 218.844 379.753 218.563 380.063 218.253C380.162 218.155 380.259 218.047 380.348 217.941C380.437 217.835 380.525 217.72 380.604 217.607C380.877 217.213 381.103 216.794 381.28 216.357C381.544 215.693 381.703 214.999 381.751 214.296C381.823 213.539 381.729 212.78 381.476 212.062C381.287 211.499 380.955 210.987 380.506 210.57C380.081 210.202 379.583 209.911 379.039 209.713C378.533 209.517 378.002 209.376 377.459 209.293C377.223 209.256 376.972 209.237 376.72 209.218C376.469 209.199 376.201 209.198 375.934 209.205C375.5 209.243 375.176 209.213 374.964 209.232L374.415 209.28L374.589 206.892L381.674 206.272C381.725 206.28 381.776 206.275 381.825 206.259C381.869 206.238 381.909 206.209 381.942 206.175V206.175C382.016 206.105 382.058 206.014 382.063 205.918L382.34 202.051C382.358 202.006 382.365 201.959 382.359 201.912C382.354 201.866 382.336 201.821 382.308 201.782V201.782Z" stroke="#255E17" stroke-width="0.742928" stroke-linecap="round" stroke-linejoin="round"/>
<path d="M410.441 208.28C411.104 204.937 411.921 202.247 411.921 202.247C411.921 202.247 397.065 199.925 392.376 187.945C389.558 180.831 389.69 172.973 392.747 165.865C390.706 166.394 388.697 167.024 386.728 167.755C379.023 204.427 410.441 208.28 410.441 208.28Z" fill="#255E17"/>
<path d="M431.302 375.114L433.91 375.953C437.059 376.958 442.478 378.718 446.886 380.245L447.061 380.304L449.446 381.146" stroke="#255E17" stroke-width="0.742928" stroke-linecap="round" stroke-linejoin="round"/>
<path d="M424.322 69.8068C433.683 69.9156 439.805 73.3789 443.869 77.4985C447.47 81.2675 449.945 85.8413 451.054 90.7797" stroke="white" stroke-width="0.742928" stroke-linecap="round" stroke-linejoin="round"/>
<path d="M444.846 61.7374C446.166 65.8357 446.24 70.2048 445.059 74.3722C444.754 75.4501 444.367 76.5076 443.899 77.5365C443.29 78.8336 442.544 80.0734 441.67 81.2377C438.676 85.3671 433.7 89.284 425.601 91.9797" stroke="white" stroke-width="0.742928" stroke-linecap="round" stroke-linejoin="round"/>
<path d="M439.799 61.4808C438.858 67.9598 441.197 72.1563 445.029 74.3337C448.136 76.0901 452.216 76.5214 456.348 75.8068" stroke="white" stroke-width="0.742928" stroke-linecap="round" stroke-linejoin="round"/>
<path d="M442.307 95.9626C443.926 90.5987 444.888 84.6599 441.675 81.2952C439.492 78.9818 435.327 77.8846 428.093 79.043C425.666 79.4235 423.264 79.9407 420.902 80.5918" stroke="white" stroke-width="0.742928" stroke-linecap="round" stroke-linejoin="round"/>
<path d="M416.439 80.0698C416.648 82.4869 417.373 84.8355 418.572 86.981C419.772 89.1265 421.422 91.0269 423.429 92.5735C425.436 94.12 427.76 95.2823 430.268 95.9939C432.776 96.7055 435.419 96.9524 438.045 96.7204C440.29 96.526 442.487 95.981 444.544 95.1091C444.705 95.0516 444.864 94.9857 445.017 94.9116C447.572 93.7714 449.845 92.1507 451.687 90.1553C453.529 88.16 454.899 85.835 455.707 83.3323C456.515 80.8296 456.743 78.2057 456.376 75.6319C456.009 73.0582 455.055 70.5927 453.577 68.3965C452.099 66.2004 450.131 64.323 447.799 62.8873C445.468 61.4515 442.827 60.4897 440.049 60.0646C437.271 59.6395 434.418 59.7608 431.677 60.4205C428.937 61.0801 426.369 62.2634 424.144 63.8929L423.866 64.0896C421.315 66.0107 419.303 68.4716 418.009 71.2573C416.714 74.043 416.175 77.0686 416.439 80.0698V80.0698Z" stroke="#FF1E00" stroke-width="0.742928" stroke-linecap="round" stroke-linejoin="round"/>
<path d="M285.854 112.368C285.77 113.96 276.942 114.141 267.043 112.371C255.917 110.356 233.898 105.418 234.176 101.559C234.454 97.6997 256.123 101.494 261.627 102.795C267.131 104.095 286.002 109.366 285.854 112.368Z" stroke="#255E17" stroke-width="0.742928" stroke-linecap="round" stroke-linejoin="round"/>
</g>
<defs>
<filter id="filter0_d_301_21" x="-20.3169" y="0" width="858.526" height="830.3" filterUnits="userSpaceOnUse" color-interpolation-filters="sRGB">
<feFlood flood-opacity="0" result="BackgroundImageFix"/>
<feColorMatrix in="SourceAlpha" type="matrix" values="0 0 0 0 0 0 0 0 0 0 0 0 0 0 0 0 0 0 127 0" result="hardAlpha"/>
<feMorphology radius="46.0159" operator="erode" in="SourceAlpha" result="effect1_dropShadow_301_21"/>
<feOffset dx="36.1553" dy="151.195"/>
<feGaussianBlur stdDeviation="93.2441"/>
<feComposite in2="hardAlpha" operator="out"/>
<feColorMatrix type="matrix" values="0 0 0 0 0 0 0 0 0 0 0 0 0 0 0 0 0 0 0.07 0"/>
<feBlend mode="normal" in2="BackgroundImageFix" result="effect1_dropShadow_301_21"/>
<feBlend mode="normal" in="SourceGraphic" in2="effect1_dropShadow_301_21" result="shape"/>
</filter>
</defs>
</svg>
